ffmpeg version 3.4.8-0ubuntu0.2 Copyright (c) 2000-2020 the FFmpeg developers
  built with gcc 7 (Ubuntu 7.5.0-3ubuntu1~18.04)
  configuration: --prefix=/usr --extra-version=0ubuntu0.2 --toolchain=hardened --libdir=/usr/lib/x86_64-linux-gnu --incdir=/usr/include/x86_64-linux-gnu --enable-gpl --disable-stripping --enable-avresample --enable-avisynth --enable-gnutls --enable-ladspa --enable-libass --enable-libbluray --enable-libbs2b --enable-libcaca --enable-libcdio --enable-libflite --enable-libfontconfig --enable-libfreetype --enable-libfribidi --enable-libgme --enable-libgsm --enable-libmp3lame --enable-libmysofa --enable-libopenjpeg --enable-libopenmpt --enable-libopus --enable-libpulse --enable-librubberband --enable-librsvg --enable-libshine --enable-libsnappy --enable-libsoxr --enable-libspeex --enable-libssh --enable-libtheora --enable-libtwolame --enable-libvorbis --enable-libvpx --enable-libwavpack --enable-libwebp --enable-libx265 --enable-libxml2 --enable-libxvid --enable-libzmq --enable-libzvbi --enable-omx --enable-openal --enable-opengl --enable-sdl2 --enable-libdc1394 --enable-libdrm --enable-libiec61883 --enable-chromaprint --enable-frei0r --enable-libopencv --enable-libx264 --enable-shared
  libavutil      55. 78.100 / 55. 78.100
  libavcodec     57.107.100 / 57.107.100
  libavformat    57. 83.100 / 57. 83.100
  libavdevice    57. 10.100 / 57. 10.100
  libavfilter     6.107.100 /  6.107.100
  libavresample   3.  7.  0 /  3.  7.  0
  libswscale      4.  8.100 /  4.  8.100
  libswresample   2.  9.100 /  2.  9.100
  libpostproc    54.  7.100 / 54.  7.100
[rawvideo @ 0x5566bc18aa20] Estimating duration from bitrate, this may be inaccurate
Input #0, rawvideo, from '../../SVC-Encoder-20220109T061506Z-001/SVC-Encoder/Dataset/RollerCoaster/6f_2x2/tile_yuv/f4_t2_480x480.yuv':
  Duration: 00:00:10.00, start: 0.000000, bitrate: 82944 kb/s
    Stream #0:0: Video: rawvideo (I420 / 0x30323449), yuv420p, 480x480, 82944 kb/s, 30 tbr, 30 tbn, 30 tbc
Stream mapping:
  Stream #0:0 -> #0:0 (rawvideo (native) -> h264 (libx264))
Press [q] to stop, [?] for help
[libx264 @ 0x5566bc197c60] using cpu capabilities: MMX2 SSE2Fast LZCNT SSSE3 SSE4.2 AVX
[libx264 @ 0x5566bc197c60] profile High, level 3.0
Output #0, rawvideo, to 'RollerCoaster_f4_t2_480x480_x264_QP_32.h264':
  Metadata:
    encoder         : Lavf57.83.100
    Stream #0:0: Video: h264 (libx264), yuv420p, 480x480, q=-1--1, 30 fps, 30 tbn, 30 tbc
    Metadata:
      encoder         : Lavc57.107.100 libx264
    Side data:
      cpb: bitrate max/min/avg: 0/0/0 buffer size: 0 vbv_delay: -1
frame=  120 fps=0.0 q=38.0 PSNR=Y:nan U:nan V:nan *:nan size=      82kB time=00:00:02.56 bitrate= 262.0kbits/s speed=5.04x    frame=  203 fps=201 q=38.0 PSNR=Y:nan U:nan V:nan *:nan size=     157kB time=00:00:05.33 bitrate= 241.3kbits/s speed=5.27x    frame=  293 fps=192 q=38.0 PSNR=Y:nan U:nan V:nan *:nan size=     250kB time=00:00:08.33 bitrate= 245.4kbits/s speed=5.46x    frame=  300 fps=172 q=38.0 LPSNR=Y:inf U:inf V:inf *:inf size=     283kB time=00:00:09.93 bitrate= 233.8kbits/s speed= 5.7x    
video:283kB audio:0kB subtitle:0kB other streams:0kB global headers:0kB muxing overhead: 0.000000%
[libx264 @ 0x5566bc197c60] frame I:2     Avg QP:30.30  size: 18298  PSNR Mean Y:36.73 U:43.80 V:45.67 Avg:38.15 Global:38.09
[libx264 @ 0x5566bc197c60] frame P:76    Avg QP:32.07  size:  2622  PSNR Mean Y:34.75 U:43.67 V:45.07 Avg:36.28 Global:36.24
[libx264 @ 0x5566bc197c60] frame B:222   Avg QP:37.47  size:   245  PSNR Mean Y:34.55 U:43.59 V:45.02 Avg:36.09 Global:36.07
[libx264 @ 0x5566bc197c60] consecutive B-frames:  1.3%  0.0%  0.0% 98.7%
[libx264 @ 0x5566bc197c60] mb I  I16..4: 16.0% 68.4% 15.6%
[libx264 @ 0x5566bc197c60] mb P  I16..4:  0.3%  0.2%  0.0%  P16..4: 38.9% 14.7%  6.9%  0.0%  0.0%    skip:39.1%
[libx264 @ 0x5566bc197c60] mb B  I16..4:  0.0%  0.0%  0.0%  B16..8: 23.0%  0.4%  0.0%  direct: 0.0%  skip:76.5%  L0:27.5% L1:71.4% BI: 1.1%
[libx264 @ 0x5566bc197c60] 8x8 transform intra:64.3% inter:66.3%
[libx264 @ 0x5566bc197c60] coded y,uvDC,uvAC intra: 65.8% 63.7% 11.7% inter: 4.9% 2.3% 0.0%
[libx264 @ 0x5566bc197c60] i16 v,h,dc,p: 20% 28% 29% 23%
[libx264 @ 0x5566bc197c60] i8 v,h,dc,ddl,ddr,vr,hd,vl,hu:  6% 14% 22%  7%  7%  5% 12% 18%  8%
[libx264 @ 0x5566bc197c60] i4 v,h,dc,ddl,ddr,vr,hd,vl,hu:  7% 16% 13%  9% 11%  5% 18% 16%  6%
[libx264 @ 0x5566bc197c60] i8c dc,h,v,p: 51% 22% 14% 13%
[libx264 @ 0x5566bc197c60] Weighted P-Frames: Y:1.3% UV:0.0%
[libx264 @ 0x5566bc197c60] ref P L0: 67.4% 16.7% 13.8%  2.0%  0.0%
[libx264 @ 0x5566bc197c60] ref B L0: 93.6%  5.7%  0.7%
[libx264 @ 0x5566bc197c60] ref B L1: 92.3%  7.7%
[libx264 @ 0x5566bc197c60] PSNR Mean Y:34.618 U:43.611 V:45.041 Avg:36.149 Global:36.120 kb/s:232.23
